<mxfile host="app.diagrams.net" modified="2020-12-25T01:42:21.225Z" agent="5.0 (X11)" etag="y7BeMnosYMfM6OFMBmUI" version="14.1.2" type="github">
  <diagram id="nEilkefR9UDqdFAqKkrV" name="Page-1">
    <mxGraphModel dx="868" dy="448" grid="1" gridSize="10" guides="1" tooltips="1" connect="1" arrows="1" fold="1" page="1" pageScale="1" pageWidth="827" pageHeight="1169" math="0" shadow="0">
      <root>
        <mxCell id="0" />
        <mxCell id="1" parent="0" />
        <mxCell id="9rxBffSBmKSju1X_8CJn-3" value="" style="ellipse;whiteSpace=wrap;html=1;aspect=fixed;" vertex="1" parent="1">
          <mxGeometry x="370" y="150" width="80" height="80" as="geometry" />
        </mxCell>
      </root>
    </mxGraphModel>
  </diagram>
</mxfile>
